# xmcd CD database file
#
# Track frame offsets:
#	150
#	13418
#	27570
#	39443
#	51733
#	66345
#	80480
#	95038
#	109540
#	123168
#	138585
#	159000
#	177253
#	189258
#	204328
#	218273
#	232585
#	246348
#
# Disc length: 3433 seconds
#
# Revision: 1
# Processed by: cddbd v1.5PL3 Copyright (c) Steve Scherf et al.
# Submitted via: CDex 1.50Beta7
#
DISCID=f00d6712
DTITLE=Ella Fitzgerald - Cryin' Mood (1936-39)
DYEAR=1994
DGENRE=Jazz
TTITLE0=Shine
TTITLE1=The Darktown Strutters'  Ball
TTITLE2=Cryin'  Mood
TTITLE3=All Over Nothing At All
TTITLE4=If You Ever Should Leave
TTITLE5=Everyone's Wrong But Me
TTITLE6=Rock It For Me
TTITLE7=Holiday In Harlem
TTITLE8=Just A Simple Melody
TTITLE9=I Got A Guy
TTITLE10=I Want To Be Happy
TTITLE11=Hallelujah!
TTITLE12=If Dreams Come True
TTITLE13=Love And Kisses
TTITLE14=Rhythm And Romance
TTITLE15=Crying My Heart Out For You
TTITLE16=Under The Spell Of The Blues
TTITLE17=When I Get Low I Get High
EXTD=YEAR: 1994
EXTT0=
EXTT1=
EXTT2=
EXTT3=
EXTT4=
EXTT5=
EXTT6=
EXTT7=
EXTT8=
EXTT9=
EXTT10=
EXTT11=
EXTT12=
EXTT13=
EXTT14=
EXTT15=
EXTT16=
EXTT17=
PLAYORDER=
